<svg width="110" height="96" viewBox="0 0 110 96" fill="none" xmlns="http://www.w3.org/2000/svg">
<path d="M90 1H20C9.50659 1 1 9.50659 1 20V76C1 86.4934 9.50659 95 20 95H90C100.493 95 109 86.4934 109 76V20C109 9.50659 100.493 1 90 1Z" stroke="#8ED8F8" stroke-width="2"/>
<path d="M88.5 16H21.5C18.4624 16 16 18.4624 16 21.5C16 24.5376 18.4624 27 21.5 27H88.5C91.5376 27 94 24.5376 94 21.5C94 18.4624 91.5376 16 88.5 16Z" fill="#8ED8F8"/>
<path d="M88.5 32H21.5C18.4624 32 16 34.4624 16 37.5C16 40.5376 18.4624 43 21.5 43H88.5C91.5376 43 94 40.5376 94 37.5C94 34.4624 91.5376 32 88.5 32Z" fill="#8ED8F8"/>
<path d="M88.5 48H21.5C18.4624 48 16 50.4624 16 53.5C16 56.5376 18.4624 59 21.5 59H88.5C91.5376 59 94 56.5376 94 53.5C94 50.4624 91.5376 48 88.5 48Z" fill="#8ED8F8"/>
<path d="M88.5 64H21.5C18.4624 64 16 66.4624 16 69.5C16 72.5376 18.4624 75 21.5 75H88.5C91.5376 75 94 72.5376 94 69.5C94 66.4624 91.5376 64 88.5 64Z" fill="#8ED8F8"/>
</svg>
